<svg xmlns="http://www.w3.org/2000/svg" width="65.513" height="20.52" viewBox="0 0 65.513 20.52">
  <defs>
    <style>
      .cls-1 {
        fill: #1e398d;
      }

      .cls-1, .cls-2 {
        fill-rule: evenodd;
      }

      .cls-2 {
        fill: #00aeef;
      }
    </style>
  </defs>
  <g id="Layer_2" data-name="Layer 2" transform="translate(-3.999 -46.003)">
    <g id="Layer_1" data-name="Layer 1" transform="translate(3.999 46.003)">
      <path id="Path_3686" data-name="Path 3686" class="cls-1" d="M.062,3.389A.64.64,0,0,1,.751,2.7H7.382c2.055.234,3.482,1.23,3.691,4.023v3.728a5.057,5.057,0,0,1-.2,1.55,3.691,3.691,0,0,1-3.691,2.805h-2.9V19.36c0,.332-.3.5-.64.5h-3A.578.578,0,0,1,0,19.249ZM4.307,6.921H6.152a.738.738,0,0,1,.726.726V9.8a.738.738,0,0,1-.726.726H4.307Z" transform="translate(0.001 0.618)"/>
      <path id="Path_3687" data-name="Path 3687" class="cls-1" d="M12.119,2.72h4.675c2.731.16,4.22,1.6,4.183,4.577V18.37a1.649,1.649,0,0,1-1.612,1.5H13.214A3.543,3.543,0,0,1,9.818,17a21.938,21.938,0,0,1-.074-4.4,4.011,4.011,0,0,1,3.8-4.282h2.461c.726,0,.689-1.624,0-1.575H12.168a.64.64,0,0,1-.7-.6V3.2C11.467,2.831,11.775,2.72,12.119,2.72ZM14.7,12.255H16.13a.6.6,0,0,1,.6.615v2.461a.6.6,0,0,1-.6.615H14.7a.615.615,0,0,1-.615-.615V12.907a.615.615,0,0,1,.615-.615Z" transform="translate(2.228 0.623)"/>
      <path id="Path_3688" data-name="Path 3688" class="cls-1" d="M20,3.509v6.952a4.269,4.269,0,0,0,4.257,3.826h1.981c.812,0,.763,1.366,0,1.366H21.993c-.468,0-.627.246-.627.652v3.064a.554.554,0,0,0,.578.541h3.949c3.3,0,5.18-1.587,5.168-5.131V3.238a.455.455,0,0,0-.468-.517h-3.31c-.308,0-.48.332-.48.578V9.624a.381.381,0,0,1-.394.431H24.835a.492.492,0,0,1-.554-.541V3.361c0-.406-.172-.7-.615-.7H20.48c-.357,0-.455.357-.455.812Z" transform="translate(4.609 0.61)"/>
      <path id="Path_3689" data-name="Path 3689" class="cls-2" d="M30.35,6.988V3.973a.591.591,0,0,1,.591-.591h.726C33.524,3,33.967,1.906,35.112.676c.7-.763,1.316-.96,1.772-.16V3.383h1.71a.591.591,0,0,1,.591.591V6.988a.591.591,0,0,1-.591.591h-1.71v12.3a.578.578,0,0,1-.591.578h-3a.578.578,0,0,1-.591-.578V7.578H30.941a.6.6,0,0,1-.591-.591Z" transform="translate(6.993 -0.003)"/>
      <path id="Path_3690" data-name="Path 3690" class="cls-2" d="M49.759,19.105a.738.738,0,0,1-.738.726H46.2a.738.738,0,0,1-.738-.726V7.811c0-1.23-2.461-1.415-2.461,0V19.105a.738.738,0,0,1-.726.726h-2.83a.738.738,0,0,1-.738-.726V3.431a.726.726,0,0,1,.738-.726h2.83A.726.726,0,0,1,43,3.431v.221a4.38,4.38,0,0,1,6.029.308C51.912.65,56.809,3.6,56.587,7.208V19.142a.738.738,0,0,1-.738.726H52.995a.738.738,0,0,1-.738-.726V7.884c-.16-1.575-2.535-1.23-2.461,0V19.142Z" transform="translate(8.919 0.577)"/>
    </g>
  </g>
</svg>
